<mxfile host="app.diagrams.net" modified="2024-05-23T18:41:48.145Z" agent="Mozilla/5.0 (Windows NT 10.0; Win64; x64) AppleWebKit/537.36 (KHTML, like Gecko) Chrome/125.0.0.0 Safari/537.36" etag="VfrMlUt0X97JHQ0rOG_l" version="24.4.6" type="device">
  <diagram name="Trang-1" id="AF3-J0Oc3ytgeGqQdvG_">
    <mxGraphModel dx="1050" dy="541" grid="0" gridSize="10" guides="1" tooltips="1" connect="1" arrows="1" fold="1" page="1" pageScale="1" pageWidth="827" pageHeight="1169" math="0" shadow="0">
      <root>
        <mxCell id="0" />
        <mxCell id="1" parent="0" />
        <mxCell id="JK3QZS5w-YeMSZtfbgjA-1" value="" style="shape=cylinder3;whiteSpace=wrap;html=1;boundedLbl=1;backgroundOutline=1;size=15;strokeWidth=3;" vertex="1" parent="1">
          <mxGeometry x="110" y="190" width="50" height="70" as="geometry" />
        </mxCell>
        <mxCell id="JK3QZS5w-YeMSZtfbgjA-3" value="" style="shape=cylinder3;whiteSpace=wrap;html=1;boundedLbl=1;backgroundOutline=1;size=15;strokeWidth=3;" vertex="1" parent="1">
          <mxGeometry x="600" y="190" width="50" height="70" as="geometry" />
        </mxCell>
        <mxCell id="JK3QZS5w-YeMSZtfbgjA-4" value="" style="rounded=0;whiteSpace=wrap;html=1;dashed=1;" vertex="1" parent="1">
          <mxGeometry x="280" y="140" width="190" height="250" as="geometry" />
        </mxCell>
        <mxCell id="JK3QZS5w-YeMSZtfbgjA-5" value="" style="rounded=1;whiteSpace=wrap;html=1;" vertex="1" parent="1">
          <mxGeometry x="320" y="190" width="120" height="60" as="geometry" />
        </mxCell>
        <mxCell id="JK3QZS5w-YeMSZtfbgjA-6" value="" style="rounded=1;whiteSpace=wrap;html=1;" vertex="1" parent="1">
          <mxGeometry x="320" y="300" width="120" height="60" as="geometry" />
        </mxCell>
        <mxCell id="JK3QZS5w-YeMSZtfbgjA-7" value="&lt;font style=&quot;font-size: 16px;&quot;&gt;&lt;b&gt;Kafka Topic&lt;/b&gt;&lt;/font&gt;" style="text;html=1;align=center;verticalAlign=middle;whiteSpace=wrap;rounded=0;" vertex="1" parent="1">
          <mxGeometry x="325" y="205" width="110" height="30" as="geometry" />
        </mxCell>
        <mxCell id="JK3QZS5w-YeMSZtfbgjA-8" value="&lt;span style=&quot;font-size: 16px;&quot;&gt;&lt;b&gt;KsqlDB&lt;/b&gt;&lt;/span&gt;" style="text;html=1;align=center;verticalAlign=middle;whiteSpace=wrap;rounded=0;" vertex="1" parent="1">
          <mxGeometry x="325" y="315" width="110" height="30" as="geometry" />
        </mxCell>
        <mxCell id="JK3QZS5w-YeMSZtfbgjA-10" value="&lt;span style=&quot;font-size: 16px;&quot;&gt;&lt;b&gt;DB EKA&amp;nbsp;&lt;/b&gt;&lt;/span&gt;&lt;div&gt;&lt;span style=&quot;font-size: 16px;&quot;&gt;&lt;b&gt;(Oracle Source)&lt;/b&gt;&lt;/span&gt;&lt;/div&gt;" style="text;html=1;align=center;verticalAlign=middle;whiteSpace=wrap;rounded=0;" vertex="1" parent="1">
          <mxGeometry x="70" y="270" width="130" height="50" as="geometry" />
        </mxCell>
        <mxCell id="JK3QZS5w-YeMSZtfbgjA-11" value="&lt;span style=&quot;font-size: 16px;&quot;&gt;&lt;b&gt;DB LONGCV&amp;nbsp;&lt;/b&gt;&lt;/span&gt;&lt;div&gt;&lt;span style=&quot;font-size: 16px;&quot;&gt;&lt;b&gt;(Oracle Sink)&lt;/b&gt;&lt;/span&gt;&lt;/div&gt;" style="text;html=1;align=center;verticalAlign=middle;whiteSpace=wrap;rounded=0;" vertex="1" parent="1">
          <mxGeometry x="560" y="265" width="130" height="50" as="geometry" />
        </mxCell>
        <mxCell id="JK3QZS5w-YeMSZtfbgjA-12" value="" style="endArrow=classic;html=1;rounded=0;entryX=0;entryY=0.5;entryDx=0;entryDy=0;exitX=1.009;exitY=0.416;exitDx=0;exitDy=0;exitPerimeter=0;" edge="1" parent="1" source="JK3QZS5w-YeMSZtfbgjA-1" target="JK3QZS5w-YeMSZtfbgjA-5">
          <mxGeometry relative="1" as="geometry">
            <mxPoint x="160" y="225" as="sourcePoint" />
            <mxPoint x="420" y="300" as="targetPoint" />
          </mxGeometry>
        </mxCell>
        <mxCell id="JK3QZS5w-YeMSZtfbgjA-13" value="Source Connector" style="edgeLabel;resizable=0;html=1;;align=center;verticalAlign=middle;" connectable="0" vertex="1" parent="JK3QZS5w-YeMSZtfbgjA-12">
          <mxGeometry relative="1" as="geometry" />
        </mxCell>
        <mxCell id="JK3QZS5w-YeMSZtfbgjA-14" value="" style="endArrow=classic;html=1;rounded=0;entryX=0;entryY=0.5;entryDx=0;entryDy=0;exitX=1.009;exitY=0.416;exitDx=0;exitDy=0;exitPerimeter=0;" edge="1" parent="1">
          <mxGeometry relative="1" as="geometry">
            <mxPoint x="440" y="219.5" as="sourcePoint" />
            <mxPoint x="600" y="220.5" as="targetPoint" />
          </mxGeometry>
        </mxCell>
        <mxCell id="JK3QZS5w-YeMSZtfbgjA-15" value="Sink Connector" style="edgeLabel;resizable=0;html=1;;align=center;verticalAlign=middle;" connectable="0" vertex="1" parent="JK3QZS5w-YeMSZtfbgjA-14">
          <mxGeometry relative="1" as="geometry" />
        </mxCell>
        <mxCell id="JK3QZS5w-YeMSZtfbgjA-16" value="" style="endArrow=classic;startArrow=classic;html=1;rounded=0;exitX=0.5;exitY=0;exitDx=0;exitDy=0;entryX=0.5;entryY=1;entryDx=0;entryDy=0;" edge="1" parent="1" source="JK3QZS5w-YeMSZtfbgjA-6" target="JK3QZS5w-YeMSZtfbgjA-5">
          <mxGeometry width="50" height="50" relative="1" as="geometry">
            <mxPoint x="420" y="270" as="sourcePoint" />
            <mxPoint x="470" y="220" as="targetPoint" />
          </mxGeometry>
        </mxCell>
        <mxCell id="JK3QZS5w-YeMSZtfbgjA-17" value="&lt;font style=&quot;font-size: 14px;&quot;&gt;&lt;b&gt;Confluent Platform&lt;/b&gt;&lt;/font&gt;" style="text;html=1;align=center;verticalAlign=middle;whiteSpace=wrap;rounded=0;" vertex="1" parent="1">
          <mxGeometry x="290" y="140" width="170" height="30" as="geometry" />
        </mxCell>
      </root>
    </mxGraphModel>
  </diagram>
</mxfile>
